<svg width="77" height="42" viewBox="0 0 77 42" fill="none" xmlns="http://www.w3.org/2000/svg">
<path d="M15.9696 42C14.8096 42 14.0496 41.44 13.6896 40.32L0.84961 1.8L0.72961 1.26C0.72961 0.899999 0.84961 0.599999 1.08961 0.36C1.32961 0.119998 1.62961 -2.86102e-06 1.98961 -2.86102e-06H7.26961C7.78961 -2.86102e-06 8.18961 0.139998 8.46961 0.419999C8.78961 0.659998 9.00961 0.959998 9.12961 1.32L19.2696 32.22L29.4096 1.32C29.4896 0.999997 29.6896 0.699998 30.0096 0.419999C30.3296 0.139998 30.7496 -2.86102e-06 31.2696 -2.86102e-06H36.5496C36.8696 -2.86102e-06 37.1496 0.119998 37.3896 0.36C37.6696 0.599999 37.8096 0.899999 37.8096 1.26L37.6896 1.8L24.8496 40.32C24.4896 41.44 23.7296 42 22.5696 42H15.9696Z" fill="black"/>
<path d="M44.6993 42C44.2993 42 43.9593 41.86 43.6793 41.58C43.3993 41.3 43.2593 40.96 43.2593 40.56V1.5C43.2593 1.06 43.3793 0.699998 43.6193 0.419999C43.8993 0.139998 44.2593 -2.86102e-06 44.6993 -2.86102e-06H60.2393C65.1193 -2.86102e-06 68.9393 1.14 71.6993 3.42C74.4993 5.7 75.8993 8.94 75.8993 13.14C75.8993 16.06 75.1793 18.52 73.7393 20.52C72.3393 22.48 70.3793 23.9 67.8593 24.78L76.6193 40.08C76.7393 40.32 76.7993 40.54 76.7993 40.74C76.7993 41.1 76.6593 41.4 76.3793 41.64C76.1393 41.88 75.8593 42 75.5393 42H70.0793C69.4393 42 68.9393 41.86 68.5793 41.58C68.2593 41.3 67.9593 40.9 67.6793 40.38L59.9393 26.16H51.5993V40.56C51.5993 40.96 51.4593 41.3 51.1793 41.58C50.9393 41.86 50.5993 42 50.1593 42H44.6993ZM60.0593 19.38C62.4593 19.38 64.2593 18.84 65.4593 17.76C66.6993 16.68 67.3193 15.12 67.3193 13.08C67.3193 11.04 66.6993 9.46 65.4593 8.34C64.2593 7.22 62.4593 6.66 60.0593 6.66H51.5993V19.38H60.0593Z" fill="#FA3138"/>
</svg>
