<?xml version="1.0" encoding="utf-8"?><svg viewBox="0 0 1980 1081" xmlns="http://www.w3.org/2000/svg" xmlns:xlink="http://www.w3.org/1999/xlink"><style>:root>svg{display:none}:root>svg:target{display:block}</style><svg viewBox="0 0 77 42" id="Logo" xmlns="http://www.w3.org/2000/svg"><path d="M15.97 42c-1.16 0-1.92-.56-2.28-1.68L.85 1.8l-.12-.54c0-.36.12-.66.36-.9s.54-.36.9-.36h5.28c.52 0 .92.14 1.2.42.32.24.54.54.66.9l10.14 30.9 10.14-30.9c.08-.32.28-.62.6-.9.32-.28.74-.42 1.26-.42h5.28c.32 0 .6.12.84.36.28.24.42.54.42.9l-.12.54-12.84 38.52c-.36 1.12-1.12 1.68-2.28 1.68h-6.6zM44.7 42c-.4 0-.74-.14-1.02-.42-.28-.28-.42-.62-.42-1.02V1.5c0-.44.12-.8.36-1.08.28-.28.64-.42 1.08-.42h15.54c4.88 0 8.7 1.14 11.46 3.42 2.8 2.28 4.2 5.52 4.2 9.72 0 2.92-.72 5.38-2.16 7.38-1.4 1.96-3.36 3.38-5.88 4.26l8.76 15.3c.12.24.18.46.18.66 0 .36-.14.66-.42.9-.24.24-.52.36-.84.36h-5.46c-.64 0-1.14-.14-1.5-.42-.32-.28-.62-.68-.9-1.2l-7.74-14.22H51.6v14.4c0 .4-.14.74-.42 1.02-.24.28-.58.42-1.02.42H44.7zm15.36-22.62c2.4 0 4.2-.54 5.4-1.62 1.24-1.08 1.86-2.64 1.86-4.68 0-2.04-.62-3.62-1.86-4.74-1.2-1.12-3-1.68-5.4-1.68H51.6v12.72h8.46z"/></svg><svg viewBox="0 0 1980 1081" id="header-bg" xmlns="http://www.w3.org/2000/svg"><path d="M992 1H0v1080h1980c0-36.83-.1-128.1-.5-198.5s-65.83-73.333-98.5-66c-192.67 34.167-557.5 8.9-475.5-365.5S1164-5 992 1z"/></svg></svg>